<svg width="124" height="64" xmlns="http://www.w3.org/2000/svg" xmlns:svg="http://www.w3.org/2000/svg">
 <g class="layer">
  <title>Layer 1</title>
  <path d="m87.51,41.5l-20.5,-8.5l-25.6,4.4l-11.9,6.6l0,20l64,0l0,-20l-6,-2.5z" fill="#1C121E" id="svg_1" transform="matrix(1 0 0 1 0 0)"/>
  <path d="m66.71,34.3s-2.8,-12.2 -3.4,-12.3c-0.2,0 -0.7,0.1 -1.2,0.3c-1,0.4 -1.1,0.1 -2.1,-0.1c-0.8,-0.2 -1.4,0.3 -1.8,0.6c-1.9,1.2 -4.7,4.8 -6.3,6.3c-2.4,2.3 -10.5,8.3 -10.5,8.3s-1.6,1.5 -3.3,4.6c0,0 3.3,-2.2 4.7,-2.3c0.8,0 0.2,2.3 0.2,2.3l4.9,-3.3l-3,3.3s3.6,-1.4 6,-2.8c1.4,-0.8 3.6,-3.8 3.9,-3.2c0.5,1 -1.9,3.8 -1.9,3.8l1.2,-0.4l-1.2,2.3l3.4,-3.1l-2,3.4s2.5,-3.1 3.1,-3.5c4.1,-2.9 -1.9,4.2 -1.9,4.2s6.8,-3.6 9.2,-3.9c3.1,-0.5 6.5,2.7 6.5,2.7l-4.5,-7.2z" fill="#301D34" id="svg_2"/>
  <path d="m88.51,43.6c-0.9,-1.1 -1,-2.1 -1,-2.1s-10.9,-6.9 -14.1,-9.7c-2.3,-2 -6.4,-6.6 -8.5,-8.8c-0.4,-0.4 -1.3,-1.2 -1.8,-1.1c-1.3,0.4 -2,3.8 -3.1,4.5c0,0 0.7,0.8 0.3,2.5c0,0 1.3,-1.5 1.3,-0.3c0,2.3 1.7,2.1 2,3.2c1.3,4.2 3.3,7.1 4.3,7.5c1.9,0.8 3.4,2.2 3.4,2.2l-0.8,-2.1c2.5,-0.1 3.9,1.3 3.9,1.3s0.1,-2 1,-1.7c2.4,0.7 6,3.9 6,3.9s-0.1,-1.3 0.8,-1.4c2.1,-0.3 6.3,2.1 6.3,2.1z" fill="#301D34" id="svg_3"/>
  <path d="m29.63,43.94c0,-0.07 -4.46,2.75 -4.52,2.73c-0.06,-0.01 -3.29,2.61 -3.35,2.6c-0.06,-0.01 -3.58,3.5 -3.64,3.49c-0.06,-0.01 -3.21,3.36 -3.27,3.34c-0.06,-0.01 -2.39,2.69 -2.45,2.67c-0.06,-0.01 -3.36,3.43 -3.42,3.42c-0.06,-0.01 -2.47,1.8 -2.53,1.78c-0.06,-0.01 23.19,0.01 23.19,0.01c0,0 0,-20.05 0,-20.05z" fill="#1C121E" id="svg_14"/>
  <path d="m92.93,43.9l3.02,0.88l3.1,1.38l3.47,1.94c0,0 2.2,1.78 2.2,1.72c0,-0.05 2.79,1.84 2.74,1.84c-0.05,0 1.35,1.68 1.31,1.64c-0.03,-0.04 2.41,2.23 2.38,2.19c-0.03,-0.04 2.51,1.67 2.48,1.63c-0.03,-0.04 1.32,1.78 1.38,1.83c0.05,0.05 2.22,2.14 2.19,2.1c-0.03,-0.04 1.07,1.37 1.03,1.33c-0.03,-0.04 1.17,1.67 1.14,1.63c-0.03,-0.04 -26.46,-0.01 -26.46,-0.01c0,0 0,-20.1 0,-20.1z" fill="#1C121E" id="svg_18"/>
 </g>
</svg>
