<svg xmlns="http://www.w3.org/2000/svg" viewBox="0 0 64 64" width="1000" height="1000">
  <path fill="#1C121E" d="M58 41.5L37.5 33l-25.6 4.4L0 44v20h64V44z" />

  <path
    fill="#301D34"
    d="M37.2 34.3S34.4 22.1 33.8 22c-.2 0-.7.1-1.2.3c-1 .4-1.1.1-2.1-.1c-.8-.2-1.4.3-1.8.6c-1.9 1.2-4.7 4.8-6.3 6.3c-2.4 2.3-10.5 8.3-10.5 8.3s-1.6 1.5-3.3 4.6c0 0 3.3-2.2 4.7-2.3c.8 0 .2 2.3.2 2.3l4.9-3.3l-3 3.3s3.6-1.4 6-2.8c1.4-.8 3.6-3.8 3.9-3.2c.5 1-1.9 3.8-1.9 3.8l1.2-.4l-1.2 2.3l3.4-3.1l-2 3.4s2.5-3.1 3.1-3.5c4.1-2.9-1.9 4.2-1.9 4.2s6.8-3.6 9.2-3.9c3.1-.5 6.5 2.7 6.5 2.7l-4.5-7.2z"
  />

  <path
    fill="#301D34"
    d="M59 43.6c-.9-1.1-1-2.1-1-2.1s-10.9-6.9-14.1-9.7c-2.3-2-6.4-6.6-8.5-8.8c-.4-.4-1.3-1.2-1.8-1.1c-1.3.4-2 3.8-3.1 4.5c0 0 .7.8.3 2.5c0 0 1.3-1.5 1.3-.3c0 2.3 1.7 2.1 2 3.2c1.3 4.2 3.3 7.1 4.3 7.5c1.9.8 3.4 2.2 3.4 2.2l-.8-2.1c2.5-.1 3.9 1.3 3.9 1.3s.1-2 1-1.7c2.4.7 6 3.9 6 3.9s-.1-1.3.8-1.4c2.1-.3 6.3 2.1 6.3 2.1z"
  />
</svg>
