<svg width="640" height="480" xmlns="http://www.w3.org/2000/svg" xmlns:svg="http://www.w3.org/2000/svg" xmlns:xlink="http://www.w3.org/1999/xlink">
 <!-- Created with SVG-edit - https://github.com/SVG-Edit/svgedit-->
 <defs>
  <symbol id="svg_20" version="1.1" viewBox="0 0 98.7 98.4" width="200" xml:space="preserve" xmlns="http://www.w3.org/2000/svg">
   <path d="m52.5,48.7c13.5,19.8 35.7,16 43,10.2c-0.3,-0.5 -4.6,-4 -13.7,-8.1c5.7,-2.8 12.4,-7.7 12.4,-7.7c-4.7,-5.3 -26.7,-8.9 -41.7,5.6z" fill="#F5CFBE"/>
  </symbol>
 </defs>
 <g class="layer">
  <title>Layer 1</title>
  <use id="svg_21" transform="rotate(-44.3268 27.4864 46.895) matrix(0.524586 0 0 0.486122 -27.0287 -74.896)" xlink:href="#svg_20"/>
  <use id="svg_31" transform="rotate(127.937 647.34 305.912) matrix(-0.0360562 -0.41666 0.473159 -0.0317508 -107.712 177.376)" xlink:href="#svg_20"/>
  <use id="svg_32" transform="matrix(0.285773 0.200166 -0.23749 0.339061 79.6965 123.295)" xlink:href="#svg_20"/>
  <use id="svg_33" transform="matrix(1 0 0 1 0 0) rotate(-27.3118 102.541 33.8675) matrix(-0.0369284 -0.365781 0.484605 -0.0278737 -6.70597 95.8207)" xlink:href="#svg_20"/>
  <use id="svg_34" transform="matrix(-0.34965 -0.223162 0.207919 -0.332127 106.754 198.353)" xlink:href="#svg_20"/>
  <use id="svg_35" transform="matrix(1 0 0 1 0 0) matrix(-0.234093 -0.417378 0.38905 -0.218205 5.29108 308.133)" xlink:href="#svg_20"/>
  <use id="svg_36" transform="rotate(-29.5427 79.2028 134.958) matrix(-0.0407318 -0.598765 0.534516 -0.0456278 -43.3103 239.334)" xlink:href="#svg_20"/>
  <use id="svg_38" transform="matrix(-0.187537 -0.255704 0.298143 -0.218663 -12.7979 216.798)" xlink:href="#svg_20"/>
  <use id="svg_39" transform="matrix(1 0 0 1 0 0) rotate(84.1602 82.2014 324.9) matrix(0.285773 0.200166 -0.23749 0.339061 97.2165 212.27)" xlink:href="#svg_20"/>
  <use id="svg_40" transform="matrix(0.285773 0.200166 -0.23749 0.339061 50.2165 186.27)" xlink:href="#svg_20"/>
  <use id="svg_41" transform="rotate(80.8644 43.7014 375.395) matrix(0.234453 0.140148 -0.194841 0.237396 56.02 296.536)" xlink:href="#svg_20"/>
  <use id="svg_42" transform="rotate(80.8644 126.197 212.895) matrix(0.234453 0.140148 -0.194841 0.237396 138.515 134.036)" xlink:href="#svg_20"/>
  <use id="svg_43" transform="rotate(80.8644 14.0105 73.3306) matrix(0.147154 0.102823 -0.122292 0.174171 25.9487 4.53848)" xlink:href="#svg_20"/>
 </g>
</svg>
