<svg width="1200" height="1200" xmlns="http://www.w3.org/2000/svg" xmlns:svg="http://www.w3.org/2000/svg" version="1.1">
 <g class="layer">
  <path d="m0,0c2.41,0.84 2.41,0.84 5.19,2.06c1.2,0.47 2.41,0.94 3.65,1.42c21.79,8.7 37.73,22.55 53.95,39.15c1.12,1.15 2.26,2.29 3.4,3.43c0.45,-0.54 0.9,-1.09 1.36,-1.65c5.33,-6.24 11.14,-11.35 17.64,-16.35c0.85,-0.67 1.7,-1.34 2.58,-2.02c11.74,-8.9 24.73,-15.63 38.42,-20.98c0.89,-0.35 1.78,-0.7 2.69,-1.06c4.23,-1.56 6.92,-2.52 11.31,-0.94c2.6,1.97 4.91,4.22 7.25,6.5c0.66,0.64 1.33,1.28 2.02,1.94c1.32,1.28 2.64,2.56 3.96,3.84c1.44,1.4 2.9,2.78 4.36,4.16c6.55,6.26 11.98,13.34 17.41,20.56c0.42,0.56 0.85,1.12 1.28,1.69c28.11,37.17 45.7,84.42 45.92,131.21c0.01,1.01 0.01,2.03 0.02,3.08c0.02,3.28 0.03,6.56 0.03,9.84c0,1.68 0,1.68 0,3.39c-0.03,25.87 -2.58,50.42 -7.67,75.82c-0.91,4.65 -1.75,9.31 -2.58,13.97c0.98,-0.59 1.96,-1.19 2.98,-1.8c64.74,-38.81 137.01,-60.71 212.29,-42.7c21.43,5.46 42.2,13.69 61.43,24.64c3.23,1.88 3.23,1.88 6.44,3.32c3.03,1.6 4.83,2.77 6.86,5.54c1.14,5.78 0.7,11.19 0,17c-0.13,1.12 -0.13,1.12 -0.26,2.27c-0.65,5.3 -1.6,10.51 -2.74,15.73c-0.15,0.69 -0.3,1.37 -0.46,2.08c-3.55,15.33 -10.39,31.1 -19.54,43.92c0.57,0.29 1.14,0.57 1.73,0.87c11.13,5.59 21.74,11.04 31.27,19.13c0.83,0.71 1.66,1.41 2.52,2.14c2.55,2.23 5.02,4.53 7.48,6.86c0.48,0.45 0.96,0.91 1.45,1.37c5.63,5.35 11.02,10.86 15.86,16.95c1.11,1.38 1.11,1.38 2.24,2.8c1.87,3.72 1.68,6.05 0.45,9.88c-1.55,3.97 -3.33,7.8 -5.19,11.63c-0.53,1.1 -1.06,2.19 -1.61,3.33c-10.73,21.63 -25.52,40.7 -42.2,58.04c-0.47,0.49 -0.94,0.99 -1.42,1.49c-6.45,6.72 -13.18,12.87 -20.58,18.51c-0.65,0.5 -1.29,0.99 -1.95,1.5c-10.18,7.72 -20.59,14.48 -31.92,20.39c-2,1.05 -3.99,2.12 -5.98,3.19c-39.25,20.86 -84.47,28.06 -128.15,32.92c2.47,2.34 4.95,4.67 7.44,7c0.73,0.69 1.46,1.38 2.22,2.09c3.75,3.52 7.52,6.99 11.4,10.35c3.4,2.98 6.35,6.19 9.27,9.64c1.6,1.85 3.28,3.54 5.04,5.24c3.73,3.67 6.98,7.67 10.26,11.75c2.32,2.88 4.72,5.68 7.12,8.5c36.13,43.51 55.45,96.11 55.5,152.62c0,0.84 0,1.68 0,2.54c-0.02,19.82 -1.77,39.16 -7.25,58.27c-0.22,0.92 -0.44,1.84 -0.66,2.79c-2.05,3.38 -5.1,3.92 -8.72,4.9c-0.65,0.2 -1.3,0.4 -1.98,0.6c-11.48,3.35 -22.87,4.08 -34.77,4.03c-0.72,-0.01 -1.44,-0.01 -2.19,-0.01c-11.95,-0.02 -23.5,-0.77 -35.07,-3.97c-0.53,-0.11 -1.06,-0.22 -1.61,-0.34c-1.77,1.77 -1.45,4.24 -1.75,6.63c-3.05,23.55 -12.58,53.43 -30.25,70.37c-21.87,8.18 -61.88,-9.67 -81.56,-18.5c-3.17,-1.46 -6.31,-2.96 -9.44,-4.5c-0.67,-0.32 -1.34,-0.65 -2.03,-0.98c-14.67,-7.22 -28.53,-16.42 -40.97,-27.02c-1.11,-0.92 -2.22,-1.84 -3.33,-2.77c-11.33,-9.5 -21.5,-19.57 -30.67,-31.23c-0.89,-1.09 -1.77,-2.18 -2.65,-3.27c-21.63,-26.84 -39.92,-58.59 -52.35,-90.73c-3.33,3.84 -5.02,8.33 -7,12.94c-12.66,28.61 -28.83,56.07 -49,80.06c-0.46,0.55 -0.91,1.09 -1.38,1.65c-39.92,47.63 -97.68,77.08 -159.56,82.85c-11.16,0.75 -11.16,0.75 -15.5,-2.09c-1.91,-2.36 -3.21,-4.69 -4.56,-7.41c-0.83,-1.25 -0.83,-1.25 -1.67,-2.53c-13.07,-20.12 -17.49,-44 -19.33,-67.47c-0.8,0.21 -1.6,0.41 -2.42,0.62c-7.55,1.86 -14.82,3.05 -22.58,3.38c-1.35,0.06 -1.35,0.06 -2.72,0.13c-13.71,0.31 -27.34,-1.42 -40.66,-4.56c-0.87,-0.21 -1.74,-0.42 -2.64,-0.63c-9.3,-2.32 -9.3,-2.32 -12.98,-4.94c-3.11,-6.17 -4.05,-12.78 -5.13,-19.56c-0.17,-1.07 -0.34,-2.13 -0.52,-3.23c-1.26,-8.09 -2.16,-16.02 -2.35,-24.21c-0.02,-0.73 -0.04,-1.46 -0.06,-2.21c-1.51,-60.39 19.25,-117.59 58.06,-163.79c0.48,-0.57 0.96,-1.14 1.45,-1.74c15.33,-18.29 31.54,-36.7 50.55,-51.26c0.33,-0.33 0.66,-0.66 1,-1c-1.13,-0.15 -2.26,-0.3 -3.43,-0.45c-70.82,-9.48 -143.91,-27.98 -191.57,-85.55c-0.81,-0.92 -1.61,-1.83 -2.44,-2.78c-16.06,-18.34 -42.09,-49.79 -42.56,-75.22c2.06,-4.08 5.09,-7.48 8,-11c0.71,-0.86 1.42,-1.72 2.15,-2.61c11.29,-13.11 25.96,-23.13 41.35,-30.89c0.64,-0.32 1.29,-0.65 1.96,-0.99c4.12,-2 8.12,-3.37 12.54,-4.51c-0.3,-0.58 -0.61,-1.17 -0.92,-1.78c-10.22,-20.06 -16.95,-39.73 -19.08,-62.22c-0.09,-0.86 -0.17,-1.73 -0.26,-2.62c-1.23,-13.99 -1.23,-13.99 1.61,-18.55c2.43,-1.72 4.88,-2.7 7.65,-3.83c1.33,-0.73 2.66,-1.47 3.98,-2.23c51.07,-29.07 115.4,-35.2 171.89,-20.63c35.4,9.73 70.33,24.87 101.13,44.86c-0.26,-0.9 -0.52,-1.8 -0.79,-2.73c-2.55,-9.22 -4.41,-18.36 -5.84,-27.83c-0.3,-1.91 -0.3,-1.91 -0.61,-3.86c-2.97,-18.94 -4.15,-37.85 -4.08,-57.01c0.01,-0.99 0.01,-1.97 0.01,-2.98c0.06,-14.37 0.29,-28.48 3.31,-42.59c0.23,-1.09 0.46,-2.18 0.7,-3.3c3.45,-15.75 7.9,-30.89 14.3,-45.7c0.52,-1.21 0.52,-1.21 1.05,-2.44c9.94,-22.7 23.62,-43 39.95,-61.56c0.79,-0.91 1.59,-1.82 2.41,-2.75c2.17,-2.44 4.37,-4.85 6.59,-7.25c0.62,-0.67 1.24,-1.35 1.88,-2.04c1.97,-2.07 4.01,-4.02 6.12,-5.96c0.48,-0.44 0.96,-0.89 1.45,-1.35c10.6,-9.63 10.6,-9.63 16.36,-8.71z" fill="#FEB4B3" id="svg_1" transform="translate(535.8125,142.9375)"/>
  <path d="m0,0c5.42,2.02 11.37,4.87 14.07,10.27c0.53,3.76 0.83,7.43 -0.97,10.86c-2.32,2.87 -4.6,4.84 -8.03,6.14c-3.01,0.2 -3.01,0.2 -6.25,0.13c-1.07,-0.02 -2.15,-0.04 -3.26,-0.06c-0.82,-0.02 -1.64,-0.04 -2.49,-0.07c-0.1,0.82 -0.2,1.63 -0.3,2.47c-0.84,4.25 -2.27,8.06 -3.82,12.1c-9.6,25.59 -17.46,51.42 -21.51,78.51c-0.37,1.92 -0.37,1.92 -1.37,3.92c0.77,0.15 1.53,0.29 2.32,0.44c2.68,0.56 2.68,0.56 5.68,1.56c0.25,-0.7 0.5,-1.39 0.75,-2.11c8.79,-20.22 28.43,-37.32 43.93,-52.44c0.79,-0.78 1.58,-1.56 2.39,-2.36c0.71,-0.69 1.42,-1.38 2.15,-2.09c1.74,-1.95 2.88,-3.55 3.78,-6c-0.33,-0.66 -0.66,-1.32 -1,-2c-0.64,-4.7 -0.63,-7.99 1.94,-12.06c4.17,-2.64 7.26,-2.8 12.06,-1.94c5.98,2.44 10.09,6.17 13,12c0.74,3.2 0.82,5.82 0,9c-1.93,2.57 -1.93,2.57 -5,4c-3.9,0.48 -7.58,0.46 -11.35,-0.75c-2.73,-0.53 -2.73,-0.53 -4.95,1.26c-0.78,0.75 -1.55,1.51 -2.35,2.28c-0.87,0.84 -1.74,1.67 -2.63,2.53c-0.9,0.88 -1.79,1.77 -2.72,2.68c-0.86,0.84 -1.73,1.68 -2.63,2.54c-2.66,2.59 -5.3,5.21 -7.93,7.84c-0.88,0.87 -1.76,1.74 -2.67,2.63c-8.18,8.16 -15.5,16.91 -22.14,26.37c-0.41,0.57 -0.82,1.15 -1.25,1.74c-4.61,5.61 -4.61,5.61 -6.06,12.2c0.22,0.55 0.45,1.11 0.68,1.68c4,1.13 5.94,0.96 9.61,-0.95c0.89,-0.45 1.77,-0.9 2.69,-1.36c1.43,-0.74 1.43,-0.74 2.89,-1.5c26.09,-12.95 54.36,-22.87 82.81,-29.19c-0.33,-0.66 -0.66,-1.32 -1,-2c-0.51,-4.09 -0.94,-8.23 1.05,-11.95c2.4,-2.9 4.34,-4.87 8.13,-5.28c5.84,-0.17 9.26,0.21 13.82,4.23c6.48,7.03 8.38,14.25 8.29,23.56c-0.42,3.62 -1.92,5.74 -4.29,8.44c-4.04,2.7 -7.24,2.79 -12,2c-4.16,-2 -7.64,-4.98 -10,-9c0,-0.66 0,-1.32 0,-2c-10.42,2.53 -20.75,5.25 -31,8.44c-0.67,0.21 -1.34,0.42 -2.03,0.63c-10.89,3.41 -21.53,7.32 -32.09,11.62c-0.65,0.26 -1.3,0.53 -1.97,0.8c-8.26,3.37 -16.26,7.1 -24.17,11.2c-2.74,1.31 -2.74,1.31 -4.74,1.31c0.66,2.64 1.32,5.28 2,8c0.9,-0.02 1.79,-0.04 2.71,-0.06c19.53,-0.4 38.05,0.27 57.29,4.06c1.01,0.2 2.01,0.39 3.05,0.59c5.66,1.08 11.31,2.22 16.95,3.41c0.27,-0.78 0.54,-1.56 0.82,-2.37c1.18,-2.63 1.18,-2.63 4.18,-4.63c3.02,-0.34 5.1,-0.57 8,0c2.7,2.18 4.46,3.91 6,7c0.5,7.13 -0.66,12.55 -4.68,18.5c-2.92,1.9 -4.98,2.14 -8.41,1.95c-1.91,-0.45 -1.91,-0.45 -4.34,-2.51c-1.79,-3.37 -2.27,-6.16 -2.57,-9.94c-0.89,-0.14 -0.89,-0.14 -1.81,-0.29c-5.22,-0.86 -10.44,-1.75 -15.65,-2.66c-0.98,-0.17 -1.96,-0.34 -2.97,-0.52c-1.95,-0.34 -3.9,-0.69 -5.85,-1.03c-1.91,-0.33 -3.83,-0.66 -5.74,-0.99c-2.01,-0.34 -4.02,-0.7 -6.02,-1.07c-8.79,-1.54 -17.38,-1.67 -26.27,-1.56c-1.43,0.01 -2.87,0.02 -4.3,0.03c-3.46,0.02 -6.92,0.05 -10.39,0.09c-0.16,2.93 -0.16,2.93 0,6c1.97,2 1.97,2 4.82,3.5c17.69,10.95 33.45,24.25 48.74,38.28c2.72,2.47 5.48,4.89 8.27,7.28c1.77,1.59 3.49,3.2 5.19,4.85c0.54,0.51 1.07,1.02 1.62,1.55c1.06,1.01 2.11,2.04 3.15,3.08c2.72,2.71 2.72,2.71 6.32,3.46c1.98,-0.97 1.98,-0.97 3.84,-2.53c3.14,-2.24 5.82,-2 9.58,-1.89c4.04,0.69 5.7,2.44 8.47,5.42c2.73,4.09 2.62,7.21 2,12c-2.37,7.59 -8.04,14.68 -15,18.5c-3.8,1.64 -6.84,2.2 -11,1.5c-2.96,-1.81 -5.42,-3.84 -7,-7c-0.12,-1.76 -0.17,-3.54 -0.18,-5.31c-0.02,-0.94 -0.03,-1.89 -0.05,-2.86c0.23,-2.83 0.23,-2.83 1.31,-5.43c1.08,-2.81 0.96,-3.62 -0.08,-6.4c-1.48,-1.82 -1.48,-1.82 -3.39,-3.5c-0.7,-0.65 -1.41,-1.31 -2.13,-1.98c-0.75,-0.69 -1.51,-1.37 -2.29,-2.08c-1.15,-1.07 -1.15,-1.07 -2.33,-2.16c-1.56,-1.43 -3.12,-2.86 -4.68,-4.29c-1.87,-1.71 -3.73,-3.43 -5.59,-5.17c-6.31,-5.88 -12.82,-11.46 -19.59,-16.82c-0.98,-0.78 -0.98,-0.78 -1.99,-1.59c-7.98,-6.36 -16.02,-12.6 -24.51,-18.28c-0.62,-0.42 -1.25,-0.85 -1.9,-1.28c-3.04,-2.16 -3.04,-2.16 -6.6,-2.85c-3,2.7 -3,2.7 -5,6c1.26,5.5 4.14,10.41 6.73,15.38c5.82,11.36 10.33,23.12 14.32,35.23c0.71,2.16 1.43,4.31 2.16,6.47c2.41,7.22 4.61,14.38 5.79,21.92c1.2,-0.1 2.4,-0.2 3.63,-0.31c3.42,-0.02 5.18,0.5 7.81,2.69c2.7,2.76 3.42,3.59 3.94,7.31c-0.51,4.54 -2.19,7.1 -5.38,10.31c-5.21,4.11 -10.77,4.7 -17.27,4.44c-2.73,-0.44 -2.73,-0.44 -5.98,-2.44c-1.79,-3.07 -2.52,-5.34 -2.31,-8.93c1.04,-3.79 3.57,-6.59 6.56,-9.07c0.66,0 1.32,0 2,0c-10.51,-38.28 -10.51,-38.28 -27.75,-73.88c-1.25,-2.12 -1.25,-2.12 -1.25,-4.12c-4.45,0.99 -4.45,0.99 -9,2c0.03,0.7 0.05,1.39 0.08,2.11c0.17,8.43 -0.85,16.4 -2.26,24.71c-0.23,1.37 -0.46,2.74 -0.69,4.12c-2.93,17.43 -6.92,34.58 -11.16,51.73c-1.25,5.1 -2.35,10.11 -2.97,15.33c0.55,0.23 1.09,0.46 1.65,0.7c3.35,1.53 5.89,2.78 8.35,5.55c1.72,4.73 1.79,8.84 -0.12,13.5c-3.1,3.72 -6.98,6.68 -11.88,7.25c-9.22,0.46 -16.63,-1.17 -24,-7c-2.97,-3.44 -3.6,-6.62 -3.41,-11.07c0.74,-3.46 2.66,-4.87 5.41,-6.93c5.29,-2.89 9.14,-3.31 15,-3c0.16,-0.87 0.32,-1.74 0.48,-2.64c1.32,-6.94 2.85,-13.71 4.84,-20.48c6.92,-24.17 10.4,-49.01 13.68,-73.88c-0.61,-0.06 -1.23,-0.12 -1.86,-0.18c-0.81,-0.08 -1.62,-0.17 -2.45,-0.25c-1.2,-0.13 -1.2,-0.13 -2.42,-0.25c-2.27,-0.32 -2.27,-0.32 -5.27,-1.32c-0.23,0.69 -0.47,1.38 -0.71,2.09c-1.54,3.5 -3.6,6.46 -5.85,9.54c-0.44,0.61 -0.89,1.23 -1.35,1.86c-6.93,9.49 -14.56,18.29 -22.57,26.88c-1.63,1.75 -3.24,3.52 -4.86,5.29c-1.13,1.24 -2.27,2.48 -3.41,3.72c-0.51,0.57 -1.03,1.14 -1.57,1.73c-3.64,3.95 -7.53,7.48 -11.68,10.89c0.5,0.96 0.5,0.96 1,1.94c1.35,4.12 1.73,7.77 1,12.06c-1.87,3.07 -1.87,3.07 -5,5c-5.64,1.28 -9.99,0.43 -14.87,-2.62c-4.21,-3.19 -7.59,-6.17 -8.5,-11.61c-0.2,-3.67 -0.04,-6.05 1.81,-9.27c3.7,-2.16 7.3,-2.7 11.56,-2.5c2.02,0.61 4.03,1.27 6,2c11.91,-10.88 11.91,-10.88 22.95,-22.63c2.22,-2.56 4.54,-5.02 6.87,-7.49c4.1,-4.5 7.84,-9.2 11.5,-14.06c0.49,-0.66 0.98,-1.31 1.49,-1.98c1.42,-1.93 2.81,-3.88 4.19,-5.84c0.51,-0.7 1.02,-1.4 1.54,-2.12c0.48,-0.7 0.95,-1.4 1.44,-2.11c0.44,-0.63 0.88,-1.26 1.33,-1.9c0.94,-1.9 0.94,-1.9 -0.05,-3.98c-1.25,-2.01 -1.25,-2.01 -3.26,-3.89c-4.96,0.37 -9.67,2.75 -14.25,4.57c-57.87,22.43 -57.87,22.43 -79.75,22.43c0.04,0.66 0.07,1.31 0.11,1.98c0.17,5.43 0.17,9.44 -3.11,14.02c-3.16,2.73 -5.25,3.88 -9.37,4.57c-4.81,-0.75 -8.03,-2.29 -11.63,-5.57c-4.76,-6.61 -6.16,-12.36 -6.37,-20.43c-0.05,-1.3 -0.1,-2.6 -0.15,-3.94c0.65,-4.48 2.05,-5.84 5.52,-8.63c3.96,-1.98 7.98,-1.33 12.07,0c2.95,2.02 3.84,3.3 5.68,6.25c1.38,2.08 1.38,2.08 3.25,3.75c7.28,0.89 15.7,-2.16 22.69,-3.93c1.21,-0.31 2.41,-0.61 3.65,-0.93c21.01,-5.44 41.64,-12.34 61.77,-20.45c1.95,-0.71 3.88,-1.22 5.89,-1.69c-0.33,-0.86 -0.66,-1.73 -1,-2.62c-0.99,-3.35 -1.07,-5.92 -1,-9.38c-0.71,0.04 -1.43,0.07 -2.17,0.11c-26.7,0.7 -55.96,-7.87 -80.83,-17.11c-0.13,0.62 -0.26,1.23 -0.4,1.86c-0.87,3.15 -1.91,4.27 -4.6,6.14c-4.56,0.86 -7.92,0.64 -11.93,-1.75c-3.69,-4.02 -4.57,-7.37 -4.45,-12.73c0.9,-5.88 3.82,-10.84 7.82,-15.14c3.21,-1.73 4.97,-1.98 8.56,-1.38c3.95,2.43 5.74,4.57 7,9c0.35,2 0.68,4 1,6c15.52,5.23 30.96,9.74 47,13c0.73,0.16 1.46,0.31 2.22,0.47c10.53,2.2 21.08,3.48 31.78,4.53c0.7,-2.92 1.2,-5.05 1,-8c-2,-2.38 -3.48,-3.79 -5.93,-5.56c-1.22,-0.95 -2.43,-1.89 -3.64,-2.84c-0.6,-0.45 -1.19,-0.89 -1.8,-1.35c-2.01,-1.54 -3.92,-3.19 -5.81,-4.87c-0.63,-0.56 -1.26,-1.11 -1.9,-1.68c-0.63,-0.56 -1.27,-1.12 -1.92,-1.7c-0.67,-0.58 -1.34,-1.16 -2.03,-1.75c-6.13,-5.37 -11.89,-11.07 -17.65,-16.81c-0.81,-0.8 -1.62,-1.61 -2.45,-2.43c-4.23,-4.24 -8.3,-8.55 -12.2,-13.08c-2.79,-3.22 -5.7,-6.32 -8.6,-9.43c-0.89,-0.94 -0.89,-0.94 -1.79,-1.91c-1.42,-1.53 -2.85,-3.06 -4.28,-4.59c-0.53,0.28 -1.06,0.57 -1.6,0.86c-0.71,0.36 -1.41,0.73 -2.14,1.1c-0.7,0.37 -1.39,0.73 -2.11,1.11c-3.77,1.64 -6.04,1.59 -10.15,0.93c-3.31,-2.1 -6.22,-4.45 -8,-8c-0.55,-8.24 1.74,-14.52 7,-21c4.81,-4.43 9.15,-7.44 15.82,-7.75c4,0.26 5.02,0.63 8.31,3.19c0.62,0.85 1.24,1.69 1.87,2.56c0.33,0.33 0.66,0.66 1,1c0.73,6.42 -0.6,11.11 -3,17c-0.41,3.83 -0.41,3.83 1.29,5.64c0.59,0.54 1.17,1.07 1.78,1.61c2.53,2.39 4.92,4.8 7.18,7.44c8.15,9.39 16.66,18.32 25.44,27.13c0.89,0.89 1.78,1.79 2.7,2.71c7.33,7.32 14.93,14.06 23.11,20.41c0.64,0.49 1.27,0.99 1.92,1.5c1.53,1.19 3.05,2.38 4.58,3.56c3.44,-1.52 6.12,-3.6 9,-6c-0.43,-0.89 -0.87,-1.79 -1.32,-2.72c-10.91,-22.73 -21.68,-50.82 -21.68,-76.28c-1.54,0.16 -1.54,0.16 -3.12,0.32c-3.88,-0.32 -3.88,-0.32 -7.31,-2.25c-3,-3.59 -3.42,-5.37 -3.08,-9.92c1.02,-4.28 3.82,-6.05 7.35,-8.33c4.9,-2.79 8.56,-3.45 14.16,-2.82c4.03,1.57 5.6,2.39 8,6c0.55,3.52 0.7,5.92 -1.27,8.98c-3.88,4.6 -3.88,4.6 -6.73,6.02c2.06,15.32 5.56,30.21 10,45c0.43,1.55 0.43,1.55 0.86,3.12c2.95,10.37 7.33,20.25 12.14,29.88c2.31,0 4.62,0 7,0c-0.03,-0.97 -0.07,-1.95 -0.1,-2.95c0,-4.41 0.84,-8.51 1.79,-12.8c0.18,-0.82 0.36,-1.65 0.55,-2.5c1.98,-8.99 4.28,-17.88 6.76,-26.75c0.21,-0.74 0.42,-1.49 0.64,-2.26c4.73,-16.81 10.61,-33.26 16.36,-49.74c-0.83,-0.59 -0.83,-0.59 -1.68,-1.2c-1.08,-0.8 -1.08,-0.8 -2.19,-1.61c-0.72,-0.52 -1.44,-1.04 -2.18,-1.58c-2.47,-2.04 -3.83,-3.69 -4.25,-6.91c-0.04,-8.89 -0.04,-8.89 3.3,-12.7c6.4,-4.66 14.47,-4.12 21.93,-2.27z" fill="#F1747A" id="svg_4" transform="translate(640.92578125,446.7265625)"/>
 </g>
</svg>
