<svg width="1024" height="1024" xmlns="http://www.w3.org/2000/svg" xmlns:svg="http://www.w3.org/2000/svg">
 <g class="layer" fill="#ffffff">
  <title>Layer 1</title>
  <path d="m398.65,284l1.04,4.72c0.12,0.58 0.19,0.86 0.31,1.1c0.12,0.2 0.26,0.38 0.43,0.52c0.2,0.15 0.43,0.23 0.9,0.38l3.86,1.27l-3.86,1.27c-0.47,0.15 -0.71,0.23 -0.9,0.38c-0.17,0.14 -0.31,0.32 -0.43,0.52c-0.12,0.24 -0.19,0.52 -0.31,1.1l-1.04,4.72l-1.04,-4.72c-0.12,-0.58 -0.19,-0.86 -0.31,-1.1c-0.12,-0.2 -0.26,-0.38 -0.43,-0.52c-0.2,-0.15 -0.43,-0.23 -0.9,-0.38l-3.86,-1.27l3.86,-1.27c0.47,-0.15 0.71,-0.23 0.9,-0.38c0.17,-0.14 0.31,-0.32 0.43,-0.52c0.12,-0.24 0.19,-0.52 0.31,-1.1l1.04,-4.72z"  id="svg_1" stroke="#23182C" stroke-linecap="round" stroke-linejoin="round" stroke-width="2"/>
  <path d="m547.6,271.11l1.04,4.72c0.12,0.58 0.19,0.86 0.31,1.1c0.12,0.2 0.26,0.38 0.43,0.52c0.2,0.15 0.43,0.23 0.9,0.38l3.86,1.27l-3.86,1.27c-0.47,0.15 -0.71,0.23 -0.9,0.38c-0.17,0.14 -0.31,0.32 -0.43,0.52c-0.12,0.24 -0.19,0.52 -0.31,1.1l-1.04,4.72l-1.04,-4.72c-0.12,-0.58 -0.19,-0.86 -0.31,-1.1c-0.12,-0.2 -0.26,-0.38 -0.43,-0.52c-0.2,-0.15 -0.43,-0.23 -0.9,-0.38l-3.86,-1.27l3.86,-1.27c0.47,-0.15 0.71,-0.23 0.9,-0.38c0.17,-0.14 0.31,-0.32 0.43,-0.52c0.12,-0.24 0.19,-0.52 0.31,-1.1l1.04,-4.72z" fill="#23182C" id="svg_2" stroke="#23182C" stroke-linecap="round" stroke-linejoin="round" stroke-width="2"/>
  <path d="m309.6,235.11l1.04,4.72c0.12,0.58 0.19,0.86 0.31,1.1c0.12,0.2 0.26,0.38 0.43,0.52c0.2,0.15 0.43,0.23 0.9,0.38l3.86,1.27l-3.86,1.27c-0.47,0.15 -0.71,0.23 -0.9,0.38c-0.17,0.14 -0.31,0.32 -0.43,0.52c-0.12,0.24 -0.19,0.52 -0.31,1.1l-1.04,4.72l-1.04,-4.72c-0.12,-0.58 -0.19,-0.86 -0.31,-1.1c-0.12,-0.2 -0.26,-0.38 -0.43,-0.52c-0.2,-0.15 -0.43,-0.23 -0.9,-0.38l-3.86,-1.27l3.86,-1.27c0.47,-0.15 0.71,-0.23 0.9,-0.38c0.17,-0.14 0.31,-0.32 0.43,-0.52c0.12,-0.24 0.19,-0.52 0.31,-1.1l1.04,-4.72z" fill="#23182C" id="svg_3" stroke="#23182C" stroke-linecap="round" stroke-linejoin="round" stroke-width="2"/>
  <path d="m788.6,166.11l1.04,4.72c0.12,0.58 0.19,0.86 0.31,1.1c0.12,0.2 0.26,0.38 0.43,0.52c0.2,0.15 0.43,0.23 0.9,0.38l3.86,1.27l-3.86,1.27c-0.47,0.15 -0.71,0.23 -0.9,0.38c-0.17,0.14 -0.31,0.32 -0.43,0.52c-0.12,0.24 -0.19,0.52 -0.31,1.1l-1.04,4.72l-1.04,-4.72c-0.12,-0.58 -0.19,-0.86 -0.31,-1.1c-0.12,-0.2 -0.26,-0.38 -0.43,-0.52c-0.2,-0.15 -0.43,-0.23 -0.9,-0.38l-3.86,-1.27l3.86,-1.27c0.47,-0.15 0.71,-0.23 0.9,-0.38c0.17,-0.14 0.31,-0.32 0.43,-0.52c0.12,-0.24 0.19,-0.52 0.31,-1.1l1.04,-4.72z" fill="#23182C" id="svg_4" stroke="#23182C" stroke-linecap="round" stroke-linejoin="round" stroke-width="2"/>
  <path d="m64.6,287.11l1.04,4.72c0.12,0.58 0.19,0.86 0.31,1.1c0.12,0.2 0.26,0.38 0.43,0.52c0.2,0.15 0.43,0.23 0.9,0.38l3.86,1.27l-3.86,1.27c-0.47,0.15 -0.71,0.23 -0.9,0.38c-0.17,0.14 -0.31,0.32 -0.43,0.52c-0.12,0.24 -0.19,0.52 -0.31,1.1l-1.04,4.72l-1.04,-4.72c-0.12,-0.58 -0.19,-0.86 -0.31,-1.1c-0.12,-0.2 -0.26,-0.38 -0.43,-0.52c-0.2,-0.15 -0.43,-0.23 -0.9,-0.38l-3.86,-1.27l3.86,-1.27c0.47,-0.15 0.71,-0.23 0.9,-0.38c0.17,-0.14 0.31,-0.32 0.43,-0.52c0.12,-0.24 0.19,-0.52 0.31,-1.1l1.04,-4.72z" fill="#23182C" id="svg_5" stroke="#23182C" stroke-linecap="round" stroke-linejoin="round" stroke-width="2"/>
  <path d="m95.6,161.11l1.04,4.72c0.12,0.58 0.19,0.86 0.31,1.1c0.12,0.2 0.26,0.38 0.43,0.52c0.2,0.15 0.43,0.23 0.9,0.38l3.86,1.27l-3.86,1.27c-0.47,0.15 -0.71,0.23 -0.9,0.38c-0.17,0.14 -0.31,0.32 -0.43,0.52c-0.12,0.24 -0.19,0.52 -0.31,1.1l-1.04,4.72l-1.04,-4.72c-0.12,-0.58 -0.19,-0.86 -0.31,-1.1c-0.12,-0.2 -0.26,-0.38 -0.43,-0.52c-0.2,-0.15 -0.43,-0.23 -0.9,-0.38l-3.86,-1.27l3.86,-1.27c0.47,-0.15 0.71,-0.23 0.9,-0.38c0.17,-0.14 0.31,-0.32 0.43,-0.52c0.12,-0.24 0.19,-0.52 0.31,-1.1l1.04,-4.72z" fill="#23182C" id="svg_6" stroke="#23182C" stroke-linecap="round" stroke-linejoin="round" stroke-width="2"/>
  <path d="m594.6,173.11l1.04,4.72c0.12,0.58 0.19,0.86 0.31,1.1c0.12,0.2 0.26,0.38 0.43,0.52c0.2,0.15 0.43,0.23 0.9,0.38l3.86,1.27l-3.86,1.27c-0.47,0.15 -0.71,0.23 -0.9,0.38c-0.17,0.14 -0.31,0.32 -0.43,0.52c-0.12,0.24 -0.19,0.52 -0.31,1.1l-1.04,4.72l-1.04,-4.72c-0.12,-0.58 -0.19,-0.86 -0.31,-1.1c-0.12,-0.2 -0.26,-0.38 -0.43,-0.52c-0.2,-0.15 -0.43,-0.23 -0.9,-0.38l-3.86,-1.27l3.86,-1.27c0.47,-0.15 0.71,-0.23 0.9,-0.38c0.17,-0.14 0.31,-0.32 0.43,-0.52c0.12,-0.24 0.19,-0.52 0.31,-1.1l1.04,-4.72z" fill="#23182C" id="svg_7" stroke="#23182C" stroke-linecap="round" stroke-linejoin="round" stroke-width="2"/>
  <path d="m932.6,313.11l1.04,4.72c0.12,0.58 0.19,0.86 0.31,1.1c0.12,0.2 0.26,0.38 0.43,0.52c0.2,0.15 0.43,0.23 0.9,0.38l3.86,1.27l-3.86,1.27c-0.47,0.15 -0.71,0.23 -0.9,0.38c-0.17,0.14 -0.31,0.32 -0.43,0.52c-0.12,0.24 -0.19,0.52 -0.31,1.1l-1.04,4.72l-1.04,-4.72c-0.12,-0.58 -0.19,-0.86 -0.31,-1.1c-0.12,-0.2 -0.26,-0.38 -0.43,-0.52c-0.2,-0.15 -0.43,-0.23 -0.9,-0.38l-3.86,-1.27l3.86,-1.27c0.47,-0.15 0.71,-0.23 0.9,-0.38c0.17,-0.14 0.31,-0.32 0.43,-0.52c0.12,-0.24 0.19,-0.52 0.31,-1.1l1.04,-4.72z" fill="#23182C" id="svg_8" stroke="#23182C" stroke-linecap="round" stroke-linejoin="round" stroke-width="2"/>
  <path d="m948.6,160.11l1.04,4.72c0.12,0.58 0.19,0.86 0.31,1.1c0.12,0.2 0.26,0.38 0.43,0.52c0.2,0.15 0.43,0.23 0.9,0.38l3.86,1.27l-3.86,1.27c-0.47,0.15 -0.71,0.23 -0.9,0.38c-0.17,0.14 -0.31,0.32 -0.43,0.52c-0.12,0.24 -0.19,0.52 -0.31,1.1l-1.04,4.72l-1.04,-4.72c-0.12,-0.58 -0.19,-0.86 -0.31,-1.1c-0.12,-0.2 -0.26,-0.38 -0.43,-0.52c-0.2,-0.15 -0.43,-0.23 -0.9,-0.38l-3.86,-1.27l3.86,-1.27c0.47,-0.15 0.71,-0.23 0.9,-0.38c0.17,-0.14 0.31,-0.32 0.43,-0.52c0.12,-0.24 0.19,-0.52 0.31,-1.1l1.04,-4.72z" fill="#23182C" id="svg_9" stroke="#23182C" stroke-linecap="round" stroke-linejoin="round" stroke-width="2"/>
  <path d="m825.6,298.11l1.04,4.72c0.12,0.58 0.19,0.86 0.31,1.1c0.12,0.2 0.26,0.38 0.43,0.52c0.2,0.15 0.43,0.23 0.9,0.38l3.86,1.27l-3.86,1.27c-0.47,0.15 -0.71,0.23 -0.9,0.38c-0.17,0.14 -0.31,0.32 -0.43,0.52c-0.12,0.24 -0.19,0.52 -0.31,1.1l-1.04,4.72l-1.04,-4.72c-0.12,-0.58 -0.19,-0.86 -0.31,-1.1c-0.12,-0.2 -0.26,-0.38 -0.43,-0.52c-0.2,-0.15 -0.43,-0.23 -0.9,-0.38l-3.86,-1.27l3.86,-1.27c0.47,-0.15 0.71,-0.23 0.9,-0.38c0.17,-0.14 0.31,-0.32 0.43,-0.52c0.12,-0.24 0.19,-0.52 0.31,-1.1l1.04,-4.72z" fill="#23182C" id="svg_10" stroke="#23182C" stroke-linecap="round" stroke-linejoin="round" stroke-width="2"/>
  <path d="m26.6,369.11l1.04,4.72c0.12,0.58 0.19,0.86 0.31,1.1c0.12,0.2 0.26,0.38 0.43,0.52c0.2,0.15 0.43,0.23 0.9,0.38l3.86,1.27l-3.86,1.27c-0.47,0.15 -0.71,0.23 -0.9,0.38c-0.17,0.14 -0.31,0.32 -0.43,0.52c-0.12,0.24 -0.19,0.52 -0.31,1.1l-1.04,4.72l-1.04,-4.72c-0.12,-0.58 -0.19,-0.86 -0.31,-1.1c-0.12,-0.2 -0.26,-0.38 -0.43,-0.52c-0.2,-0.15 -0.43,-0.23 -0.9,-0.38l-3.86,-1.27l3.86,-1.27c0.47,-0.15 0.71,-0.23 0.9,-0.38c0.17,-0.14 0.31,-0.32 0.43,-0.52c0.12,-0.24 0.19,-0.52 0.31,-1.1l1.04,-4.72z" fill="#23182C" id="svg_11" stroke="#23182C" stroke-linecap="round" stroke-linejoin="round" stroke-width="2"/>
  <path d="m191.6,175.11l1.04,4.72c0.12,0.58 0.19,0.86 0.31,1.1c0.12,0.2 0.26,0.38 0.43,0.52c0.2,0.15 0.43,0.23 0.9,0.38l3.86,1.27l-3.86,1.27c-0.47,0.15 -0.71,0.23 -0.9,0.38c-0.17,0.14 -0.31,0.32 -0.43,0.52c-0.12,0.24 -0.19,0.52 -0.31,1.1l-1.04,4.72l-1.04,-4.72c-0.12,-0.58 -0.19,-0.86 -0.31,-1.1c-0.12,-0.2 -0.26,-0.38 -0.43,-0.52c-0.2,-0.15 -0.43,-0.23 -0.9,-0.38l-3.86,-1.27l3.86,-1.27c0.47,-0.15 0.71,-0.23 0.9,-0.38c0.17,-0.14 0.31,-0.32 0.43,-0.52c0.12,-0.24 0.19,-0.52 0.31,-1.1l1.04,-4.72z" fill="#23182C" id="svg_12" stroke="#23182C" stroke-linecap="round" stroke-linejoin="round" stroke-width="2"/>
  <path d="m365.6,160.11l1.04,4.72c0.12,0.58 0.19,0.86 0.31,1.1c0.12,0.2 0.26,0.38 0.43,0.52c0.2,0.15 0.43,0.23 0.9,0.38l3.86,1.27l-3.86,1.27c-0.47,0.15 -0.71,0.23 -0.9,0.38c-0.17,0.14 -0.31,0.32 -0.43,0.52c-0.12,0.24 -0.19,0.52 -0.31,1.1l-1.04,4.72l-1.04,-4.72c-0.12,-0.58 -0.19,-0.86 -0.31,-1.1c-0.12,-0.2 -0.26,-0.38 -0.43,-0.52c-0.2,-0.15 -0.43,-0.23 -0.9,-0.38l-3.86,-1.27l3.86,-1.27c0.47,-0.15 0.71,-0.23 0.9,-0.38c0.17,-0.14 0.31,-0.32 0.43,-0.52c0.12,-0.24 0.19,-0.52 0.31,-1.1l1.04,-4.72z" fill="#23182C" id="svg_13" stroke="#23182C" stroke-linecap="round" stroke-linejoin="round" stroke-width="2"/>
  <path d="m161.6,49.11l1.04,4.72c0.12,0.58 0.19,0.86 0.31,1.1c0.12,0.2 0.26,0.38 0.43,0.52c0.2,0.15 0.43,0.23 0.9,0.38l3.86,1.27l-3.86,1.27c-0.47,0.15 -0.71,0.23 -0.9,0.38c-0.17,0.14 -0.31,0.32 -0.43,0.52c-0.12,0.24 -0.19,0.52 -0.31,1.1l-1.04,4.72l-1.04,-4.72c-0.12,-0.58 -0.19,-0.86 -0.31,-1.1c-0.12,-0.2 -0.26,-0.38 -0.43,-0.52c-0.2,-0.15 -0.43,-0.23 -0.9,-0.38l-3.86,-1.27l3.86,-1.27c0.47,-0.15 0.71,-0.23 0.9,-0.38c0.17,-0.14 0.31,-0.32 0.43,-0.52c0.12,-0.24 0.19,-0.52 0.31,-1.1l1.04,-4.72z" fill="#23182C" id="svg_14" stroke="#23182C" stroke-linecap="round" stroke-linejoin="round" stroke-width="2"/>
  <path d="m860.6,110.11l1.04,4.72c0.12,0.58 0.19,0.86 0.31,1.1c0.12,0.2 0.26,0.38 0.43,0.52c0.2,0.15 0.43,0.23 0.9,0.38l3.86,1.27l-3.86,1.27c-0.47,0.15 -0.71,0.23 -0.9,0.38c-0.17,0.14 -0.31,0.32 -0.43,0.52c-0.12,0.24 -0.19,0.52 -0.31,1.1l-1.04,4.72l-1.04,-4.72c-0.12,-0.58 -0.19,-0.86 -0.31,-1.1c-0.12,-0.2 -0.26,-0.38 -0.43,-0.52c-0.2,-0.15 -0.43,-0.23 -0.9,-0.38l-3.86,-1.27l3.86,-1.27c0.47,-0.15 0.71,-0.23 0.9,-0.38c0.17,-0.14 0.31,-0.32 0.43,-0.52c0.12,-0.24 0.19,-0.52 0.31,-1.1l1.04,-4.72z" fill="#23182C" id="svg_15" stroke="#23182C" stroke-linecap="round" stroke-linejoin="round" stroke-width="2"/>
 </g>
</svg>
